<svg version="1.1" xmlns="http://www.w3.org/2000/svg" viewBox="0 0 3329.4583443005854 1102.8706215222678" width="3329.4583443005854" height="1102.8706215222678" filter="invert(93%) hue-rotate(180deg)">
  <!-- svg-source:excalidraw -->
  
  <defs>
    <style class="style-fonts">
      @font-face {
        font-family: "Virgil";
        src: url("https://excalidraw.com/Virgil.woff2");
      }
      @font-face {
        font-family: "Cascadia";
        src: url("https://excalidraw.com/Cascadia.woff2");
      }
    </style>
    
  </defs>
  <rect x="0" y="0" width="3329.4583443005854" height="1102.8706215222678" fill="#f5faff"></rect><g stroke-linecap="round" transform="translate(10 314.4619069629248) rotate(0 166.2089385986328 75.27164459228516)"><path d="M32 0 M32 0 C135.11 -4.5, 240.53 -1.44, 300.42 0 M32 0 C113.24 0.5, 196.35 -0.61, 300.42 0 M300.42 0 C318 1.71, 328.97 14.63, 332.42 32 M300.42 0 C323.29 1.26, 331.85 7.5, 332.42 32 M332.42 32 C333.04 63.87, 332.7 88.31, 332.42 118.54 M332.42 32 C331.37 55.06, 331.13 80.07, 332.42 118.54 M332.42 118.54 C332.04 140.22, 320.36 147.61, 300.42 150.54 M332.42 118.54 C330.38 139.54, 324.42 150.32, 300.42 150.54 M300.42 150.54 C236.25 150.5, 169.04 146.95, 32 150.54 M300.42 150.54 C226.71 150.5, 157.29 150.7, 32 150.54 M32 150.54 C12.08 150.39, 1.75 141.81, 0 118.54 M32 150.54 C10.87 152.59, -3.15 140.56, 0 118.54 M0 118.54 C2.64 86.71, 2.29 61.81, 0 32 M0 118.54 C-1.37 86.5, -3.28 53.84, 0 32 M0 32 C-3.73 10.25, 14.06 -1.45, 32 0 M0 32 C-1.57 6.82, 11.85 3.49, 32 0" stroke="#e03131" stroke-width="1" fill="none"></path></g><g transform="translate(78.41905975341797 377.23355155520994) rotate(0 97.78987884521484 12.5)"><text x="97.78987884521484" y="0" font-family="Virgil, Segoe UI Emoji" font-size="20px" fill="#e03131" text-anchor="middle" style="white-space: pre;" direction="ltr" dominant-baseline="text-before-edge">node ka ghar hai ye</text></g><g stroke-linecap="round"><g transform="translate(613.613198371615 415.71079170162966) rotate(0 -127.7331010941092 -7.848909711734223)"><path d="M2.57 -2.42 C-17.73 -2.13, -81.9 2.8, -124.45 0.44 C-167.01 -1.93, -231.25 -13.39, -252.76 -16.61 M0.53 2.43 C-19.72 3.23, -83.27 6.04, -125.54 3.44 C-167.81 0.85, -232.04 -9.71, -253.1 -13.14" stroke="#2f9e44" stroke-width="1" fill="none"></path></g><g transform="translate(613.613198371615 415.71079170162966) rotate(0 -127.7331010941092 -7.848909711734223)"><path d="M-227.11 -15.8 C-231.42 -13.25, -234.87 -13.17, -255.38 -13.59 M-221.79 -19.23 C-232.19 -16.51, -237.25 -18.18, -251.36 -14.93" stroke="#2f9e44" stroke-width="1" fill="none"></path></g><g transform="translate(613.613198371615 415.71079170162966) rotate(0 -127.7331010941092 -7.848909711734223)"><path d="M-230.34 4.46 C-233.79 2.78, -236.58 -1.32, -255.38 -13.59 M-225.03 1.04 C-234.4 -1.05, -238.68 -7.57, -251.36 -14.93" stroke="#2f9e44" stroke-width="1" fill="none"></path></g></g><mask></mask><g stroke-linecap="round" transform="translate(624.3562994003296 331.27385764651854) rotate(0 208.620849609375 74.12537384033203)"><path d="M32 0 M32 0 C128.14 -0.21, 220.61 -1.24, 385.24 0 M32 0 C165.82 0.6, 299.35 2.09, 385.24 0 M385.24 0 C408.43 2.33, 416.57 14.1, 417.24 32 M385.24 0 C407.42 2.39, 421.74 11.86, 417.24 32 M417.24 32 C412.21 56.83, 419 86.77, 417.24 116.25 M417.24 32 C419 52.67, 417.92 74.22, 417.24 116.25 M417.24 116.25 C417.53 135.62, 404.13 146.29, 385.24 148.25 M417.24 116.25 C417.66 141.45, 405.98 152.26, 385.24 148.25 M385.24 148.25 C296.43 143.9, 203.95 145.06, 32 148.25 M385.24 148.25 C275.45 148.07, 167.58 147.62, 32 148.25 M32 148.25 C10.13 145.33, -1.71 134.44, 0 116.25 M32 148.25 C7.86 143.99, 3.72 139.14, 0 116.25 M0 116.25 C3.09 94.58, 3.87 84, 0 32 M0 116.25 C0.02 83.72, 0.4 54.75, 0 32 M0 32 C1.71 13.84, 12.61 -3.88, 32 0 M0 32 C4.15 11.69, 13.02 -2.69, 32 0" stroke="#1971c2" stroke-width="1" fill="none"></path></g><g transform="translate(682.5486598014832 366.42610984378416) rotate(0 149.26983642578125 37.5)"><text x="0" y="0" font-family="Virgil, Segoe UI Emoji" font-size="20px" fill="#1971c2" text-anchor="start" style="white-space: pre;" direction="ltr" dominant-baseline="text-before-edge">head node ke ghar ka adress</text><text x="0" y="25" font-family="Virgil, Segoe UI Emoji" font-size="20px" fill="#1971c2" text-anchor="start" style="white-space: pre;" direction="ltr" dominant-baseline="text-before-edge"> deta hai while itself living </text><text x="0" y="50" font-family="Virgil, Segoe UI Emoji" font-size="20px" fill="#1971c2" text-anchor="start" style="white-space: pre;" direction="ltr" dominant-baseline="text-before-edge">somewhere else int the memory</text></g><g stroke-linecap="round" transform="translate(481.6499505043025 635.8760979970298) rotate(0 267.08062744140625 84.44180297851562)"><path d="M32 0 M32 0 C142.38 4.33, 250.77 3.99, 502.16 0 M32 0 C200.32 1.74, 369.31 1.51, 502.16 0 M502.16 0 C526.54 0.97, 533.96 11.27, 534.16 32 M502.16 0 C522.64 -4.26, 533.79 12.37, 534.16 32 M534.16 32 C533.76 71.61, 534 107.72, 534.16 136.88 M534.16 32 C532.68 64.49, 534.5 94.89, 534.16 136.88 M534.16 136.88 C530.36 157.21, 521.68 169.4, 502.16 168.88 M534.16 136.88 C537.76 155.81, 519.48 168.58, 502.16 168.88 M502.16 168.88 C366.8 171.62, 228.19 171.41, 32 168.88 M502.16 168.88 C388.95 169.26, 276.37 169.42, 32 168.88 M32 168.88 C14.11 164.92, -3.64 159.16, 0 136.88 M32 168.88 C11.32 172.98, 2.87 155.78, 0 136.88 M0 136.88 C-0.17 99.23, 2.33 63.21, 0 32 M0 136.88 C-1.53 97.6, 1.11 58.07, 0 32 M0 32 C-3.9 11.33, 13.34 0.79, 32 0 M0 32 C-4.38 9.83, 12.72 -2.55, 32 0" stroke="#f08c00" stroke-width="1" fill="none"></path></g><g transform="translate(506.0170769691463 693.076110204061) rotate(0 210.16976928710938 37.5)"><text x="0" y="0" font-family="Virgil, Segoe UI Emoji" font-size="20px" fill="#f08c00" text-anchor="start" style="white-space: pre;" direction="ltr" dominant-baseline="text-before-edge">Addstart function ko you are passing iska</text><text x="0" y="25" font-family="Virgil, Segoe UI Emoji" font-size="20px" fill="#f08c00" text-anchor="start" style="white-space: pre;" direction="ltr" dominant-baseline="text-before-edge"> memory address and value you</text><text x="0" y="50" font-family="Virgil, Segoe UI Emoji" font-size="20px" fill="#f08c00" text-anchor="start" style="white-space: pre;" direction="ltr" dominant-baseline="text-before-edge"> want to add in the linked List</text></g><g stroke-linecap="round"><g transform="translate(731.5364251136775 628.234313329061) rotate(0 37.062744140625 -69.15821838378906)"><path d="M1.3 0.01 C11.72 -8.07, 48.15 -27.3, 60.36 -50.32 C72.58 -73.33, 71.85 -123.17, 74.59 -138.07 M-1.43 -2.45 C8.87 -11.19, 46.1 -32.49, 58.51 -54.56 C70.92 -76.62, 71.09 -120.94, 73.04 -134.83" stroke="#2f9e44" stroke-width="1" fill="none"></path></g><g transform="translate(731.5364251136775 628.234313329061) rotate(0 37.062744140625 -69.15821838378906)"><path d="M80.88 -104.85 C81.52 -111.59, 78.09 -114.9, 71.01 -132.33 M79.31 -104.04 C80.19 -113.09, 74.59 -123.33, 71.98 -134.78" stroke="#2f9e44" stroke-width="1" fill="none"></path></g><g transform="translate(731.5364251136775 628.234313329061) rotate(0 37.062744140625 -69.15821838378906)"><path d="M60.43 -106.6 C65.62 -113.14, 66.75 -116.06, 71.01 -132.33 M58.86 -105.79 C65.8 -114.36, 66.24 -124.08, 71.98 -134.78" stroke="#2f9e44" stroke-width="1" fill="none"></path></g></g><mask></mask><g stroke-linecap="round" transform="translate(490.7763357162471 905.6467140515647) rotate(0 263.6417999267578 93.61195373535156)"><path d="M32 0 M32 0 C191.5 -1.18, 349.68 0.91, 495.28 0 M32 0 C182.8 -0.63, 335.46 -0.16, 495.28 0 M495.28 0 C512.86 0.08, 528.36 9.34, 527.28 32 M495.28 0 C520.63 -2.69, 528.85 9.19, 527.28 32 M527.28 32 C529.47 78.45, 526.38 125.1, 527.28 155.22 M527.28 32 C527.79 76.89, 528.27 123.26, 527.28 155.22 M527.28 155.22 C527.97 179.32, 517.14 184.28, 495.28 187.22 M527.28 155.22 C524.1 178.26, 516.99 184.55, 495.28 187.22 M495.28 187.22 C354.58 186.89, 217.14 186.2, 32 187.22 M495.28 187.22 C330.68 191.92, 165.35 191.01, 32 187.22 M32 187.22 C9.17 186.89, 0.66 177.41, 0 155.22 M32 187.22 C8.96 185.18, 4.03 175.56, 0 155.22 M0 155.22 C0.19 111.92, -3.62 64.55, 0 32 M0 155.22 C-1.73 109.88, 0.3 68.04, 0 32 M0 32 C-3.14 10.94, 14.17 3.31, 32 0 M0 32 C1.12 6.27, 11.69 1.9, 32 0" stroke="#f08c00" stroke-width="1" fill="none"></path></g><g transform="translate(494.19897365570023 938.7451942761741) rotate(0 254.81971740722656 75)"><text x="254.81971740722656" y="0" font-family="Virgil, Segoe UI Emoji" font-size="20px" fill="#f08c00" text-anchor="middle" style="white-space: pre;" direction="ltr" dominant-baseline="text-before-edge">addstart function adds elements to the start</text><text x="254.81971740722656" y="25" font-family="Virgil, Segoe UI Emoji" font-size="20px" fill="#f08c00" text-anchor="middle" style="white-space: pre;" direction="ltr" dominant-baseline="text-before-edge">of the linked list, by first making a new node,</text><text x="254.81971740722656" y="50" font-family="Virgil, Segoe UI Emoji" font-size="20px" fill="#f08c00" text-anchor="middle" style="white-space: pre;" direction="ltr" dominant-baseline="text-before-edge">then newnode-&gt;val=val and newnode-&gt;next=*head</text><text x="254.81971740722656" y="75" font-family="Virgil, Segoe UI Emoji" font-size="20px" fill="#f08c00" text-anchor="middle" style="white-space: pre;" direction="ltr" dominant-baseline="text-before-edge">where *head is the address of previous node then</text><text x="254.81971740722656" y="100" font-family="Virgil, Segoe UI Emoji" font-size="20px" fill="#f08c00" text-anchor="middle" style="white-space: pre;" direction="ltr" dominant-baseline="text-before-edge">changing head to the address of the currecnt node</text><text x="254.81971740722656" y="125" font-family="Virgil, Segoe UI Emoji" font-size="20px" fill="#f08c00" text-anchor="middle" style="white-space: pre;" direction="ltr" dominant-baseline="text-before-edge"></text></g><g stroke-linecap="round"><g transform="translate(736.0778799057002 806.3034523328147) rotate(0 -13.710877656936646 48.525360107421875)"><path d="M2.2 -1.84 C-2.13 6.51, -23.89 36.69, -25.54 52.87 C-27.18 69.05, -10.86 87.93, -7.7 95.24 M-0.05 3.34 C-4.62 13.15, -25.17 39.6, -26.75 55.27 C-28.33 70.94, -13.1 90.05, -9.53 97.37" stroke="#2f9e44" stroke-width="1" fill="none"></path></g><g transform="translate(736.0778799057002 806.3034523328147) rotate(0 -13.710877656936646 48.525360107421875)"><path d="M-30.13 85.43 C-24.77 87, -18.45 93.29, -9.97 97.74 M-27.64 83.64 C-23.21 87.63, -16.19 91.18, -8.62 96.7" stroke="#2f9e44" stroke-width="1" fill="none"></path></g><g transform="translate(736.0778799057002 806.3034523328147) rotate(0 -13.710877656936646 48.525360107421875)"><path d="M-16.52 77.3 C-15.3 81.65, -13.28 90.51, -9.97 97.74 M-14.03 75.5 C-13.83 82.35, -11.14 88.49, -8.62 96.7" stroke="#2f9e44" stroke-width="1" fill="none"></path></g></g><mask></mask><g stroke-linecap="round" transform="translate(1138.871109962463 435.2329424222312) rotate(0 434.435791015625 102.78207397460938)"><path d="M32 0 M32 0 C302.75 4.17, 574.04 6.38, 836.87 0 M32 0 C220.92 0.56, 409.41 -0.3, 836.87 0 M836.87 0 C854.49 -0.43, 869.32 13.13, 868.87 32 M836.87 0 C860.96 -2.21, 872.94 11.13, 868.87 32 M868.87 32 C872.41 63.13, 871.93 101.51, 868.87 173.56 M868.87 32 C866.5 72.8, 865.96 113.38, 868.87 173.56 M868.87 173.56 C865.62 192.35, 858.94 207.48, 836.87 205.56 M868.87 173.56 C869.59 190.99, 856.18 204.09, 836.87 205.56 M836.87 205.56 C626.08 208.4, 416.88 207.77, 32 205.56 M836.87 205.56 C589.32 199.82, 342.67 201.14, 32 205.56 M32 205.56 C14.66 207.43, -0.28 198.24, 0 173.56 M32 205.56 C12.14 206.28, 1.34 199.36, 0 173.56 M0 173.56 C4.94 142.89, 5.19 105.55, 0 32 M0 173.56 C-2.52 121.4, -0.6 71.22, 0 32 M0 32 C1.73 14.06, 9.39 2.36, 32 0 M0 32 C-4.56 13, 9.61 3.78, 32 0" stroke="#2f9e44" stroke-width="1" fill="none"></path></g><g transform="translate(1186.9093093872066 488.5986593564353) rotate(0 375.24957275390625 50)"><text x="375.24957275390625" y="0" font-family="Virgil, Segoe UI Emoji" font-size="20px" fill="#2f9e44" text-anchor="middle" style="white-space: pre;" direction="ltr" dominant-baseline="text-before-edge">Addend function, same params as addstart. logic here is </text><text x="375.24957275390625" y="25" font-family="Virgil, Segoe UI Emoji" font-size="20px" fill="#2f9e44" text-anchor="middle" style="white-space: pre;" direction="ltr" dominant-baseline="text-before-edge">that if *head being the location of previous added node is null</text><text x="375.24957275390625" y="50" font-family="Virgil, Segoe UI Emoji" font-size="20px" fill="#2f9e44" text-anchor="middle" style="white-space: pre;" direction="ltr" dominant-baseline="text-before-edge">it implies that it is the beginning of the linked list thus next value is NULL</text><text x="375.24957275390625" y="75" font-family="Virgil, Segoe UI Emoji" font-size="20px" fill="#2f9e44" text-anchor="middle" style="white-space: pre;" direction="ltr" dominant-baseline="text-before-edge">and the *head value now becomes this current node   </text></g><g stroke-linecap="round"><g transform="translate(1547.5450873374934 429.4075735410056) rotate(0 -249.16655356720082 -32.75636655074359)"><path d="M-1.9 2.63 C-18.49 -7.53, -14.78 -57.88, -97.52 -63.71 C-180.26 -69.53, -431.41 -38.3, -498.33 -32.33 M2.26 1.59 C-14.86 -9.1, -15.79 -62.33, -99.6 -67.62 C-183.41 -72.92, -433.98 -36.04, -500.59 -30.18" stroke="#2f9e44" stroke-width="1" fill="none"></path></g><g transform="translate(1547.5450873374934 429.4075735410056) rotate(0 -249.16655356720082 -32.75636655074359)"><path d="M-470.02 -43.22 C-481.15 -40.2, -496.54 -36.21, -496.74 -28.82 M-474.76 -45 C-482.65 -36.61, -493.56 -33.94, -501.9 -30.94" stroke="#2f9e44" stroke-width="1" fill="none"></path></g><g transform="translate(1547.5450873374934 429.4075735410056) rotate(0 -249.16655356720082 -32.75636655074359)"><path d="M-467.65 -22.83 C-479.26 -27.44, -495.53 -31.04, -496.74 -28.82 M-472.38 -24.62 C-481.15 -23.7, -492.93 -28.56, -501.9 -30.94" stroke="#2f9e44" stroke-width="1" fill="none"></path></g></g><mask></mask><g stroke-linecap="round" transform="translate(1143.2943243980403 707.6722544034324) rotate(0 433.67164611816406 108.13134765625)"><path d="M32 0 M32 0 C275.89 0.62, 522.89 1.48, 835.34 0 M32 0 C296.74 -2.73, 561.2 -2.27, 835.34 0 M835.34 0 C858.59 -1.03, 865.2 9.8, 867.34 32 M835.34 0 C856.81 3.59, 866.27 10.05, 867.34 32 M867.34 32 C868.32 82.59, 871.95 143.3, 867.34 184.26 M867.34 32 C863.13 71.33, 864.32 115.95, 867.34 184.26 M867.34 184.26 C870.36 203.01, 859.59 219.82, 835.34 216.26 M867.34 184.26 C863.78 210.05, 859.87 219.84, 835.34 216.26 M835.34 216.26 C548.79 213.67, 260.86 211.67, 32 216.26 M835.34 216.26 C602.87 216.64, 368.66 218.03, 32 216.26 M32 216.26 C9.15 218.59, -2.53 203.77, 0 184.26 M32 216.26 C9.68 218.13, -1.2 204.88, 0 184.26 M0 184.26 C-1.69 138.45, -0.77 101.73, 0 32 M0 184.26 C-0.12 129.39, 0.67 71.78, 0 32 M0 32 C-1.57 7.04, 6.93 -0.32, 32 0 M0 32 C-1.24 8.76, 12.71 -1.43, 32 0" stroke="#e03131" stroke-width="1" fill="none"></path></g><g transform="translate(1148.6165595054622 800.6946476300559) rotate(0 416.9195556640625 50)"><text x="416.9195556640625" y="0" font-family="Virgil, Segoe UI Emoji" font-size="20px" fill="#e03131" text-anchor="middle" style="white-space: pre;" direction="ltr" dominant-baseline="text-before-edge">Now if the head node isnt empty then we make a empty node which point to</text><text x="416.9195556640625" y="25" font-family="Virgil, Segoe UI Emoji" font-size="20px" fill="#e03131" text-anchor="middle" style="white-space: pre;" direction="ltr" dominant-baseline="text-before-edge"> the head node(basically a copy of head node) then traverse through the linked list</text><text x="416.9195556640625" y="50" font-family="Virgil, Segoe UI Emoji" font-size="20px" fill="#e03131" text-anchor="middle" style="white-space: pre;" direction="ltr" dominant-baseline="text-before-edge">until we find a node that points to NULL (basically the end of the LL). then make</text><text x="416.9195556640625" y="75" font-family="Virgil, Segoe UI Emoji" font-size="20px" fill="#e03131" text-anchor="middle" style="white-space: pre;" direction="ltr" dominant-baseline="text-before-edge">that node point to the current node :) </text></g><g stroke-linecap="round"><g transform="translate(1577.3480658531184 703.3752201398215) rotate(0 -27.587972350270775 -25.63412222169221)"><path d="M-1.64 -2.04 C-2.34 -7.38, 4.82 -21.87, -4.21 -29.89 C-13.24 -37.92, -47.21 -46.14, -55.82 -50.21 M2.67 3.03 C1.7 -2.11, 4.26 -17.18, -5.82 -26.73 C-15.91 -36.28, -49.55 -50, -57.84 -54.3" stroke="#e03131" stroke-width="1" fill="none"></path></g><g transform="translate(1577.3480658531184 703.3752201398215) rotate(0 -27.587972350270775 -25.63412222169221)"><path d="M-33.13 -50.27 C-39.76 -53.51, -43.03 -54.33, -59.92 -55.71 M-28.9 -52.23 C-40.46 -54.25, -46.38 -53.36, -58.77 -54.99" stroke="#e03131" stroke-width="1" fill="none"></path></g><g transform="translate(1577.3480658531184 703.3752201398215) rotate(0 -27.587972350270775 -25.63412222169221)"><path d="M-41.13 -33.07 C-45.63 -41.37, -46.5 -47.35, -59.92 -55.71 M-36.9 -35.04 C-45.88 -42.46, -49.24 -47.07, -58.77 -54.99" stroke="#e03131" stroke-width="1" fill="none"></path></g></g><mask></mask><g stroke-linecap="round" transform="translate(2211.4583443005854 361.10575230916334) rotate(0 554 258)"><path d="M7.86 8.16 C7.86 8.16, 7.86 8.16, 7.86 8.16 M7.86 8.16 C7.86 8.16, 7.86 8.16, 7.86 8.16 M3.66 19.09 C5.53 10.44, 17.76 11.05, 18.1 2.48 M3.66 19.09 C6.78 12.03, 11.23 9.69, 18.1 2.48 M2.75 26.24 C10.09 14.76, 14.67 11.42, 24.4 1.33 M2.75 26.24 C7.67 18.67, 14.01 9.81, 24.4 1.33 M1.83 33.39 C8.85 23.09, 19.54 12.33, 30.7 0.18 M1.83 33.39 C9.57 26.34, 16.37 15.62, 30.7 0.18 M1.57 39.79 C11.11 24.28, 23.68 13.16, 34.37 2.05 M1.57 39.79 C15.43 25.85, 25.4 11.32, 34.37 2.05 M1.96 45.43 C13.5 32.11, 27.38 14.87, 39.36 2.41 M1.96 45.43 C10.63 31.72, 23.32 19.06, 39.36 2.41 M1.7 51.83 C8.13 41.48, 16.5 32.24, 45 2.02 M1.7 51.83 C9.31 38.26, 19.63 29.03, 45 2.02 M1.44 58.23 C12.45 44.18, 21.56 28.55, 49.99 2.38 M1.44 58.23 C12.24 47.49, 22.31 32.99, 49.99 2.38 M1.83 63.87 C22.32 39.41, 47.25 19.21, 55.63 1.98 M1.83 63.87 C16.22 46.7, 32.13 28.09, 55.63 1.98 M1.57 70.27 C15.48 51.68, 28.36 41.5, 60.62 2.34 M1.57 70.27 C24.61 44.35, 43.84 19.08, 60.62 2.34 M1.97 75.91 C28.75 43.02, 48.7 18.1, 66.26 1.95 M1.97 75.91 C18.61 55.38, 32.27 41.3, 66.26 1.95 M1.71 82.31 C31.53 54.03, 54.19 20.04, 71.25 2.31 M1.71 82.31 C21.77 56.82, 39.86 34.55, 71.25 2.31 M1.44 88.71 C20.16 65.55, 47.55 37.53, 76.89 1.91 M1.44 88.71 C20.28 63.89, 43.76 39.59, 76.89 1.91 M1.84 94.35 C19.27 71.14, 40.93 50.72, 81.88 2.27 M1.84 94.35 C19.75 76.35, 36.38 56.77, 81.88 2.27 M1.58 100.75 C22.75 75.17, 46.69 49.05, 87.52 1.88 M1.58 100.75 C27.94 68.6, 54.06 36.86, 87.52 1.88 M1.97 106.39 C17.91 86.7, 41.38 65.02, 92.51 2.24 M1.97 106.39 C39.2 65.75, 74.94 24.91, 92.51 2.24 M1.71 112.79 C37.87 64.6, 82.06 22.27, 98.15 1.85 M1.71 112.79 C40.85 69.69, 75 29.41, 98.15 1.85 M1.45 119.19 C23.91 91.73, 55.63 64.48, 103.14 2.21 M1.45 119.19 C39.77 75.18, 77.95 33.72, 103.14 2.21 M1.84 124.83 C33.99 92, 62.46 54.34, 108.78 1.81 M1.84 124.83 C41.05 79.83, 80.63 36.6, 108.78 1.81 M1.58 131.23 C28.19 99.51, 58.1 69.4, 113.77 2.17 M1.58 131.23 C43.66 86.23, 84.95 38.1, 113.77 2.17 M1.98 136.87 C36.79 98.37, 72.61 51.59, 119.41 1.78 M1.98 136.87 C42.3 94.24, 80.09 46.82, 119.41 1.78 M1.72 143.27 C35.55 105.54, 70.99 62.55, 124.4 2.14 M1.72 143.27 C47.36 88.57, 97.21 31.67, 124.4 2.14 M1.45 149.67 C36.43 113.35, 66.54 72.21, 130.04 1.74 M1.45 149.67 C32.01 116.11, 57.57 81.36, 130.04 1.74 M1.85 155.31 C28.77 126.58, 54.21 92.21, 135.03 2.1 M1.85 155.31 C49.9 96.54, 100.12 37.03, 135.03 2.1 M1.59 161.71 C49.23 107.94, 97.12 52.64, 140.67 1.71 M1.59 161.71 C41.03 115.46, 82.96 70.8, 140.67 1.71 M1.98 167.35 C58.71 101.3, 117.44 41.19, 145.66 2.07 M1.98 167.35 C43.32 121.27, 83.14 77.68, 145.66 2.07 M1.72 173.75 C64.73 110.95, 116.39 44.32, 150.65 2.43 M1.72 173.75 C36.98 129.49, 76.1 87.38, 150.65 2.43 M1.46 180.14 C41.56 137.38, 84.27 92.16, 156.29 2.03 M1.46 180.14 C56.14 119.49, 106.77 63.42, 156.29 2.03 M1.85 185.79 C42.39 145.96, 77.31 101, 161.28 2.39 M1.85 185.79 C39.14 143.21, 74.59 101.52, 161.28 2.39 M1.59 192.19 C52.06 137.43, 101.16 77.22, 166.92 2 M1.59 192.19 C65.19 117.72, 129.7 43.19, 166.92 2 M1.99 197.83 C61.36 125.51, 127.41 52.62, 171.91 2.36 M1.99 197.83 C62.05 127.02, 120.92 59.6, 171.91 2.36 M1.72 204.23 C53.25 144.53, 99.29 88.32, 177.55 1.96 M1.72 204.23 C39.84 157.01, 82.04 110.98, 177.55 1.96 M1.46 210.62 C50.68 157.95, 91.88 103.71, 182.54 2.32 M1.46 210.62 C60.35 142.49, 118.68 75.84, 182.54 2.32 M1.86 216.27 C42.34 163.84, 89.13 113.63, 188.18 1.93 M1.86 216.27 C43.08 170.97, 82.07 124.05, 188.18 1.93 M1.6 222.66 C76.45 135.72, 149.85 43.55, 193.17 2.29 M1.6 222.66 C64.49 149.92, 125.78 80.2, 193.17 2.29 M1.99 228.31 C52.16 171.35, 96.56 114.19, 198.81 1.9 M1.99 228.31 C47.77 176.94, 93.04 125.54, 198.81 1.9 M1.73 234.71 C59.84 162.99, 122.25 93.94, 203.8 2.26 M1.73 234.71 C53.86 175.65, 105.34 115.56, 203.8 2.26 M1.47 241.1 C60.87 174.36, 119.57 111.3, 209.44 1.86 M1.47 241.1 C71.98 156.76, 146.92 75.05, 209.44 1.86 M1.86 246.75 C70.57 169.56, 135.04 93.05, 214.43 2.22 M1.86 246.75 C68.18 171.8, 132.97 99.37, 214.43 2.22 M1.6 253.14 C75.72 163.95, 151 79.37, 220.07 1.83 M1.6 253.14 C86.66 155.45, 172.07 58.97, 220.07 1.83 M2 258.79 C88.77 163.38, 170.21 70.19, 225.06 2.19 M2 258.79 C48.58 204.54, 95.22 152.98, 225.06 2.19 M1.73 265.19 C88.37 162.08, 176.86 63.85, 230.7 1.79 M1.73 265.19 C81.32 175.36, 158.28 89.02, 230.7 1.79 M1.47 271.58 C65.44 198.7, 122.58 130.24, 235.69 2.15 M1.47 271.58 C80.57 178.36, 163.85 85.12, 235.69 2.15 M1.87 277.23 C75.98 196.35, 146.34 115.84, 241.33 1.76 M1.87 277.23 C70.8 191.68, 144.26 108.37, 241.33 1.76 M1.61 283.62 C80.94 191.62, 160.42 98.03, 246.32 2.12 M1.61 283.62 C76.87 199.92, 148.99 116.16, 246.32 2.12 M2 289.27 C98.09 178.49, 192.3 73.15, 251.96 1.72 M2 289.27 C53.15 227.47, 104.33 165.31, 251.96 1.72 M1.74 295.66 C59.8 232.55, 113.47 170.26, 256.95 2.08 M1.74 295.66 C68.8 220.18, 136.53 143.58, 256.95 2.08 M1.48 302.06 C73.24 220.03, 144.15 141.93, 262.59 1.69 M1.48 302.06 C76.79 215.53, 152.85 126.02, 262.59 1.69 M1.87 307.71 C82.54 209.89, 168.67 116.99, 267.58 2.05 M1.87 307.71 C110.62 185.98, 216.42 62.88, 267.58 2.05 M1.61 314.1 C103.93 199.06, 208.57 80.02, 272.56 2.41 M1.61 314.1 C102.15 194.18, 202.45 76.18, 272.56 2.41 M2.01 319.75 C76.97 235.31, 154.81 147.25, 278.21 2.01 M2.01 319.75 C94.43 212.63, 188.72 103.77, 278.21 2.01 M1.74 326.14 C85.59 224.3, 172.09 123.82, 283.19 2.37 M1.74 326.14 C58.39 259.76, 117.06 193.16, 283.19 2.37 M1.48 332.54 C102.54 223.57, 198.33 107.88, 288.84 1.98 M1.48 332.54 C79.91 242.52, 156.82 154.04, 288.84 1.98 M1.88 338.19 C108.4 213.17, 220.01 85.02, 293.82 2.34 M1.88 338.19 C99.2 229.44, 194.81 119.01, 293.82 2.34 M1.62 344.58 C120.94 209.01, 239.82 73.1, 299.47 1.94 M1.62 344.58 C72.33 264.93, 139.46 186.49, 299.47 1.94 M2.01 350.23 C99.71 234.28, 202.65 114.99, 304.45 2.3 M2.01 350.23 C61.19 278.68, 122.9 208.67, 304.45 2.3 M1.75 356.62 C102.03 248.56, 197.07 137.17, 310.1 1.91 M1.75 356.62 C66.22 279.04, 132.24 201.74, 310.1 1.91 M1.49 363.02 C76.53 279.92, 148.28 195.35, 315.08 2.27 M1.49 363.02 C90.1 258.2, 182.81 152.99, 315.08 2.27 M1.88 368.66 C68.44 290.05, 134.63 214.45, 320.73 1.88 M1.88 368.66 C91.5 263.67, 182.99 158.22, 320.73 1.88 M1.62 375.06 C112.77 245.86, 224.29 117.47, 325.71 2.24 M1.62 375.06 C122.71 237.33, 244.78 96.86, 325.71 2.24 M2.02 380.71 C126.66 237.99, 253.07 92.49, 331.36 1.84 M2.02 380.71 C87.56 282.56, 172.3 184.35, 331.36 1.84 M1.75 387.1 C93.26 280.06, 181.15 178.6, 336.34 2.2 M1.75 387.1 C80.58 296.32, 159.17 206.7, 336.34 2.2 M1.49 393.5 C70.3 313.83, 141.72 233.88, 341.99 1.81 M1.49 393.5 C71.76 316.37, 140.68 236.55, 341.99 1.81 M1.89 399.14 C71.78 315.41, 146.34 233.46, 346.97 2.17 M1.89 399.14 C124.06 258.13, 245.51 119.18, 346.97 2.17 M1.63 405.54 C141.68 247.58, 280.05 87.24, 352.62 1.77 M1.63 405.54 C124.22 263.92, 245 123.85, 352.62 1.77 M2.02 411.18 C106.38 290.41, 214.16 163.65, 357.6 2.13 M2.02 411.18 C85.08 316.85, 166.31 225.56, 357.6 2.13 M1.76 417.58 C136.19 266.24, 272 113.74, 363.25 1.74 M1.76 417.58 C140.83 255.19, 280.48 94.94, 363.25 1.74 M1.5 423.98 C109.3 303.31, 213.65 182.16, 368.23 2.1 M1.5 423.98 C99.81 309.85, 196.92 197, 368.23 2.1 M1.89 429.62 C107 311.71, 209.52 191.33, 373.88 1.7 M1.89 429.62 C136.02 276.23, 268.32 122.76, 373.88 1.7 M1.63 436.02 C89.14 342.72, 171.16 246.37, 378.86 2.06 M1.63 436.02 C108.88 313.73, 214.2 192.27, 378.86 2.06 M2.02 441.66 C135.38 284.52, 269.87 129.68, 383.85 2.42 M2.02 441.66 C147.02 279.24, 289.51 115.41, 383.85 2.42 M1.76 448.06 C154.34 277.56, 302.66 103.78, 389.49 2.03 M1.76 448.06 C154.56 273.38, 305.7 99.75, 389.49 2.03 M1.5 454.46 C78.74 360.86, 158.09 269.51, 394.48 2.39 M1.5 454.46 C112.53 323.47, 225.87 194.2, 394.48 2.39 M1.9 460.1 C150.59 285.73, 303.41 111.27, 400.12 1.99 M1.9 460.1 C132.6 314.72, 261.54 167.32, 400.12 1.99 M1.64 466.5 C123.22 335.08, 238.79 198.55, 405.11 2.35 M1.64 466.5 C93.77 363.55, 185.3 257.68, 405.11 2.35 M2.03 472.14 C92.48 368.26, 180.68 266.59, 410.75 1.96 M2.03 472.14 C133.23 325.51, 261.3 177.03, 410.75 1.96 M1.77 478.54 C101.57 361.11, 204.59 244.28, 415.74 2.32 M1.77 478.54 C109.56 355.52, 219.01 229.88, 415.74 2.32 M1.51 484.94 C92.69 374.69, 185.52 269.44, 421.38 1.93 M1.51 484.94 C88.44 380, 177.13 279.45, 421.38 1.93 M1.9 490.58 C167.38 302.31, 329.37 117.39, 426.37 2.29 M1.9 490.58 C145.71 329.55, 288.26 164.87, 426.37 2.29 M2.95 495.47 C148.81 321.51, 298.41 151.93, 432.01 1.89 M2.95 495.47 C156.41 319.58, 312.21 139.67, 432.01 1.89 M4 500.36 C158.99 320.28, 310.81 143.25, 437 2.25 M4 500.36 C149.69 333.76, 296.23 167.32, 437 2.25 M7.02 502.98 C111.99 380.67, 220.15 257, 442.64 1.86 M7.02 502.98 C152.28 339.07, 293.43 175.71, 442.64 1.86 M9.38 506.36 C145.09 355.86, 277.35 200.06, 447.63 2.22 M9.38 506.36 C101.31 397.63, 193.22 290.69, 447.63 2.22 M11.75 509.74 C105.97 401.82, 200.82 291.99, 453.27 1.82 M11.75 509.74 C174.76 317.83, 339.14 128.95, 453.27 1.82 M14.11 513.12 C166.34 338.82, 313.62 168.82, 458.26 2.18 M14.11 513.12 C136.78 371.08, 259.1 229.28, 458.26 2.18 M18.44 514.24 C124.82 387.65, 236.52 262.92, 463.9 1.79 M18.44 514.24 C181.52 321.42, 347.65 129.83, 463.9 1.79 M22.77 515.35 C115.95 401.56, 212.46 290.39, 468.89 2.15 M22.77 515.35 C149.86 365.84, 279.47 215.78, 468.89 2.15 M27.76 515.71 C189.49 333.03, 346.97 150.99, 474.53 1.75 M27.76 515.71 C169.9 355.17, 310.34 194.66, 474.53 1.75 M32.75 516.07 C163.41 372.47, 290.03 225.97, 479.52 2.11 M32.75 516.07 C207.16 317.3, 378.51 121.72, 479.52 2.11 M37.73 516.43 C163.03 376.34, 289.21 233.39, 485.17 1.72 M37.73 516.43 C205.55 322.78, 376.8 125.97, 485.17 1.72 M43.38 516.04 C193.77 339.47, 345.68 164.47, 490.15 2.08 M43.38 516.04 C191.25 344.21, 340.62 172.8, 490.15 2.08 M48.36 516.4 C207.81 332.31, 371.87 147.7, 495.8 1.68 M48.36 516.4 C169.9 375.98, 295.31 231.02, 495.8 1.68 M53.35 516.76 C218.24 330.5, 381.92 143.38, 500.78 2.04 M53.35 516.76 C178.51 372.17, 306.08 226.54, 500.78 2.04 M58.99 516.36 C179.23 373.01, 303.31 231.15, 505.77 2.4 M58.99 516.36 C197.25 353.73, 336.02 194.4, 505.77 2.4 M63.98 516.72 C237.71 314.71, 409.75 118.23, 511.41 2.01 M63.98 516.72 C162.17 401.91, 264.9 284.41, 511.41 2.01 M69.62 516.33 C205.66 361.55, 340.54 204.4, 516.4 2.37 M69.62 516.33 C202.55 369.72, 331.99 221.48, 516.4 2.37 M74.61 516.69 C170.68 404.46, 266.26 294.77, 522.04 1.98 M74.61 516.69 C224.27 347.86, 369.14 180.82, 522.04 1.98 M80.25 516.29 C192.89 387.62, 307.11 261.34, 527.03 2.34 M80.25 516.29 C186.47 396.43, 293.1 274.56, 527.03 2.34 M85.24 516.65 C228.52 352.36, 375.79 183.04, 532.67 1.94 M85.24 516.65 C256.19 317.01, 430.53 118.73, 532.67 1.94 M90.88 516.26 C240.67 342.44, 390.34 170.67, 537.66 2.3 M90.88 516.26 C215.91 368.54, 344.25 222.13, 537.66 2.3 M95.87 516.62 C261.15 330.55, 421.33 142.1, 543.3 1.91 M95.87 516.62 C267.43 315.78, 440.24 117.3, 543.3 1.91 M101.51 516.22 C226.91 371.52, 355.2 223.55, 548.29 2.27 M101.51 516.22 C265.19 323.49, 430.7 133.8, 548.29 2.27 M106.5 516.58 C207.72 399.99, 309.9 283.07, 553.93 1.87 M106.5 516.58 C260.39 340.12, 415.06 161.44, 553.93 1.87 M112.14 516.19 C233.3 380.04, 356.04 241.18, 558.92 2.23 M112.14 516.19 C260.69 342.49, 410.54 169.95, 558.92 2.23 M117.13 516.55 C286.97 316.61, 461.83 117.72, 564.56 1.84 M117.13 516.55 C231.52 384.39, 347.37 251.01, 564.56 1.84 M122.77 516.15 C275.1 335.42, 430.18 156.79, 569.55 2.2 M122.77 516.15 C228.17 393.58, 334.54 272.15, 569.55 2.2 M127.76 516.51 C306.08 310.98, 483.8 107.01, 575.19 1.8 M127.76 516.51 C289.22 323.98, 454 133.79, 575.19 1.8 M133.4 516.12 C223.96 408.48, 318.7 298.1, 580.18 2.16 M133.4 516.12 C239.59 396.12, 344.99 277.51, 580.18 2.16 M138.39 516.48 C301.05 330.13, 464.2 143.57, 585.82 1.77 M138.39 516.48 C262.65 374.11, 385.65 232.35, 585.82 1.77 M144.03 516.09 C258.99 378.21, 376.96 242.85, 590.81 2.13 M144.03 516.09 C272.75 361.85, 404.58 210.72, 590.81 2.13 M149.02 516.45 C263.89 387.91, 377.68 256.05, 596.45 1.73 M149.02 516.45 C258.6 392.57, 365.36 269.61, 596.45 1.73 M154.66 516.05 C301.67 343.33, 451.1 172.82, 601.44 2.09 M154.66 516.05 C287.16 362.23, 418.54 209.49, 601.44 2.09 M159.65 516.41 C261.1 399.03, 360.15 282.29, 607.08 1.7 M159.65 516.41 C282.03 375.04, 407.99 230.67, 607.08 1.7 M164.64 516.77 C315.64 334.64, 474.81 155.01, 612.07 2.06 M164.64 516.77 C306.59 348.85, 451.37 182.69, 612.07 2.06 M170.28 516.38 C297.23 377.08, 418.76 238, 617.06 2.42 M170.28 516.38 C290.36 373.32, 412.62 234.53, 617.06 2.42 M175.27 516.74 C300.89 372.21, 424.26 228.87, 622.7 2.02 M175.27 516.74 C337.89 325.9, 502.91 136.21, 622.7 2.02 M180.91 516.34 C352.25 316.66, 527.47 117.83, 627.69 2.38 M180.91 516.34 C295.54 386.53, 407.67 258.86, 627.69 2.38 M185.9 516.7 C360.36 318.93, 533.22 119.81, 633.33 1.99 M185.9 516.7 C290.43 398.82, 393.66 279.89, 633.33 1.99 M191.54 516.31 C285.7 404.65, 380.31 293.84, 638.32 2.35 M191.54 516.31 C326.37 357.13, 460.85 201.57, 638.32 2.35 M196.53 516.67 C364.15 326.27, 528 136.5, 643.96 1.96 M196.53 516.67 C297.86 405.96, 395.86 294.89, 643.96 1.96 M202.17 516.27 C358.02 335.02, 516.47 155.13, 648.95 2.32 M202.17 516.27 C324.98 373.82, 451.96 229.15, 648.95 2.32 M207.16 516.63 C311.27 395.04, 417.74 274.42, 654.59 1.92 M207.16 516.63 C314.88 389.14, 424.5 262.51, 654.59 1.92 M212.8 516.24 C342.19 367.45, 474.36 213.92, 659.58 2.28 M212.8 516.24 C341.83 361.26, 473.53 211.08, 659.58 2.28 M217.79 516.6 C307.08 409.75, 398.34 305, 665.22 1.89 M217.79 516.6 C365.77 346.14, 516 172.15, 665.22 1.89 M223.43 516.2 C350.43 373.17, 476.79 229.3, 670.21 2.25 M223.43 516.2 C310.83 412.01, 401.74 307.25, 670.21 2.25 M228.42 516.56 C332.51 398.73, 436.29 280.25, 675.85 1.85 M228.42 516.56 C370.45 352.24, 516.81 184.36, 675.85 1.85 M234.06 516.17 C337.05 401.85, 439.18 285.02, 680.84 2.21 M234.06 516.17 C383.47 348.59, 532.08 176.62, 680.84 2.21 M239.05 516.53 C358.81 381.68, 476.11 248.32, 686.48 1.82 M239.05 516.53 C394.62 340.51, 549.33 161.92, 686.48 1.82 M244.69 516.14 C340.82 405.61, 435.28 298.16, 691.47 2.18 M244.69 516.14 C402.74 329.69, 565.02 143.94, 691.47 2.18 M249.68 516.5 C420 321.9, 589.52 128.61, 697.11 1.78 M249.68 516.5 C409.73 338.18, 565.66 158.66, 697.11 1.78 M255.32 516.1 C424.47 320.48, 595.24 123.2, 702.1 2.14 M255.32 516.1 C356.27 396, 458.08 278.29, 702.1 2.14 M260.31 516.46 C384.78 372.78, 514.05 228.46, 707.74 1.75 M260.31 516.46 C428.64 316.57, 601.59 118.2, 707.74 1.75 M265.95 516.07 C382.78 381.1, 500.95 245.65, 712.73 2.11 M265.95 516.07 C373.4 392.96, 477.13 273.97, 712.73 2.11 M270.94 516.43 C439.37 323.97, 605.62 129.55, 718.37 1.71 M270.94 516.43 C415.92 350.67, 559.01 186.36, 718.37 1.71 M276.58 516.03 C376.9 399.54, 477.65 283.55, 723.36 2.07 M276.58 516.03 C423.75 347.61, 569.44 182.4, 723.36 2.07 M281.57 516.39 C409.69 364.32, 537.61 216.44, 729 1.68 M281.57 516.39 C429.31 347.09, 574.32 180.15, 729 1.68 M286.56 516.75 C382.42 401.02, 480.67 287.98, 733.99 2.04 M286.56 516.75 C386.13 405.52, 482.23 295.77, 733.99 2.04 M292.2 516.36 C460.39 324.88, 625.99 135.06, 738.98 2.4 M292.2 516.36 C461.53 325.9, 628.25 133.63, 738.98 2.4 M297.19 516.72 C420.2 372.9, 539.35 232.49, 744.62 2.01 M297.19 516.72 C420 377.24, 543.64 236.47, 744.62 2.01 M302.83 516.32 C472.37 318.53, 642.09 122.7, 749.61 2.37 M302.83 516.32 C463.05 331.12, 622.38 147.81, 749.61 2.37 M307.82 516.68 C468.44 332.8, 628.58 147.7, 755.25 1.97 M307.82 516.68 C409.13 398, 513.51 277.67, 755.25 1.97 M313.46 516.29 C405.1 414.3, 496.5 307.57, 760.24 2.33 M313.46 516.29 C474.64 326.91, 636.41 138.97, 760.24 2.33 M318.45 516.65 C463.3 347.08, 614.36 175.89, 765.88 1.94 M318.45 516.65 C439.13 377.36, 560.16 239.1, 765.88 1.94 M324.09 516.25 C470.28 345.73, 620.76 175.37, 770.87 2.3 M324.09 516.25 C499.35 313.79, 678.14 109.68, 770.87 2.3 M329.08 516.61 C422.28 403.65, 518.1 292.46, 776.51 1.9 M329.08 516.61 C478.92 342.2, 628.83 170.82, 776.51 1.9 M334.72 516.22 C508.31 315.13, 679.88 119.07, 781.5 2.26 M334.72 516.22 C454.1 376.76, 575.76 237.38, 781.5 2.26 M339.71 516.58 C473.2 369.67, 603.05 221.7, 787.14 1.87 M339.71 516.58 C441.8 404.67, 541.13 290.59, 787.14 1.87 M345.35 516.18 C517.64 317.72, 692.12 117.38, 792.13 2.23 M345.35 516.18 C477.71 360.06, 609.86 208.53, 792.13 2.23 M350.34 516.54 C440.76 409.83, 532.6 302.38, 797.77 1.83 M350.34 516.54 C479.1 364.94, 611.49 213.47, 797.77 1.83 M355.98 516.15 C486.07 360.97, 617.68 210.97, 802.76 2.19 M355.98 516.15 C442.53 410.69, 531.98 308.33, 802.76 2.19 M360.97 516.51 C488.35 369.32, 619.35 220.75, 808.4 1.8 M360.97 516.51 C528.86 328.66, 694.04 138.67, 808.4 1.8 M366.61 516.12 C484.72 375.16, 605.94 233.34, 813.39 2.16 M366.61 516.12 C462.5 403.89, 559.31 293.62, 813.39 2.16 M371.6 516.48 C471.21 402.01, 571.03 288.64, 819.03 1.76 M371.6 516.48 C470.75 408.7, 567.69 297.12, 819.03 1.76 M377.24 516.08 C556.24 310.72, 733.57 103.87, 824.02 2.12 M377.24 516.08 C552.37 316.06, 722.79 119.2, 824.02 2.12 M382.23 516.44 C543.94 327.17, 708.41 137.51, 829.66 1.73 M382.23 516.44 C499.84 373.91, 619.87 235.15, 829.66 1.73 M387.87 516.05 C561.74 324.63, 730.3 130.04, 834.65 2.09 M387.87 516.05 C498.58 387.27, 610.4 257.64, 834.65 2.09 M392.86 516.41 C502.83 397.94, 607.75 274.9, 840.29 1.69 M392.86 516.41 C533.81 348.17, 676.86 184.28, 840.29 1.69 M397.84 516.77 C498.77 398.58, 603.37 281.68, 845.28 2.06 M397.84 516.77 C563.69 322.59, 732.27 129.52, 845.28 2.06 M403.49 516.37 C501.76 401.46, 599.57 287.38, 850.26 2.42 M403.49 516.37 C495.94 406.04, 591.9 295.08, 850.26 2.42 M408.47 516.73 C578.52 315.69, 752.46 120.01, 855.91 2.02 M408.47 516.73 C503.33 403.39, 601.67 288.79, 855.91 2.02 M414.12 516.34 C540.38 373.07, 662.9 232.86, 860.89 2.38 M414.12 516.34 C574.18 331.16, 733.17 147.35, 860.89 2.38 M419.1 516.7 C596.56 312.43, 773.01 107.54, 866.54 1.99 M419.1 516.7 C535.73 382.15, 650.96 250.53, 866.54 1.99 M424.75 516.3 C526.55 397.03, 630.83 278.06, 871.52 2.35 M424.75 516.3 C521.59 407.51, 617.61 297.82, 871.52 2.35 M429.73 516.66 C538.3 396.72, 642.28 277.41, 877.17 1.95 M429.73 516.66 C548.24 382.6, 667.37 245.91, 877.17 1.95 M435.38 516.27 C551.64 377.84, 673.82 237.8, 882.15 2.31 M435.38 516.27 C525.68 414.4, 615.49 312.01, 882.15 2.31 M440.36 516.63 C613.96 320.57, 783.36 122.22, 887.8 1.92 M440.36 516.63 C549.01 399.18, 652.3 279.06, 887.8 1.92 M446.01 516.23 C562.4 381.6, 674.58 254.02, 892.78 2.28 M446.01 516.23 C539.95 413.96, 630.86 310.17, 892.78 2.28 M450.99 516.59 C606.84 339.64, 764.68 157.72, 898.43 1.88 M450.99 516.59 C567.99 387.12, 682.4 255.81, 898.43 1.88 M456.64 516.2 C548.86 410.41, 642.6 303.47, 903.41 2.24 M456.64 516.2 C569.99 390.14, 681.17 260.82, 903.41 2.24 M461.62 516.56 C617.76 333.98, 776.27 152.49, 909.06 1.85 M461.62 516.56 C568.73 395.01, 674.33 272.28, 909.06 1.85 M467.27 516.17 C561.17 403.24, 657.53 291.68, 914.04 2.21 M467.27 516.17 C575.95 389.85, 684.89 263.35, 914.04 2.21 M472.25 516.53 C575.8 394.47, 680.37 274.15, 919.69 1.81 M472.25 516.53 C645.71 315.73, 818.58 118.03, 919.69 1.81 M477.9 516.13 C629.93 340.26, 783.16 163.82, 924.67 2.17 M477.9 516.13 C583.32 396.96, 688.75 277.35, 924.67 2.17 M482.88 516.49 C638.55 340.83, 791.9 166.6, 930.32 1.78 M482.88 516.49 C623.37 351.78, 766.27 187.04, 930.32 1.78 M488.53 516.1 C629.18 350.49, 770.89 185.77, 935.3 2.14 M488.53 516.1 C634.98 349.07, 781.49 181.29, 935.3 2.14 M493.51 516.46 C604.18 391.21, 715.31 259.88, 940.95 1.74 M493.51 516.46 C662.56 322.56, 828.41 131.89, 940.95 1.74 M499.16 516.06 C603.58 392.94, 709.15 275.09, 945.93 2.1 M499.16 516.06 C677.15 313.67, 853.8 110.76, 945.93 2.1 M504.14 516.42 C618.58 385.73, 732.48 253.63, 951.58 1.71 M504.14 516.42 C619.32 375.39, 738.64 239.07, 951.58 1.71 M509.79 516.03 C621.77 393.76, 733.18 266.75, 956.56 2.07 M509.79 516.03 C668.4 326.27, 830.12 140.88, 956.56 2.07 M514.77 516.39 C627.39 386.61, 739.98 258.05, 961.55 2.43 M514.77 516.39 C629.41 384.02, 744.15 253.54, 961.55 2.43 M519.76 516.75 C644.41 365.53, 772 218.36, 967.19 2.04 M519.76 516.75 C661.9 354.31, 800.64 193.75, 967.19 2.04 M525.4 516.35 C647.72 374.44, 770.78 232.03, 972.18 2.4 M525.4 516.35 C699.93 321.42, 870.34 125.47, 972.18 2.4 M530.39 516.71 C684.09 338.82, 841.69 156.41, 977.82 2 M530.39 516.71 C700.14 315.82, 872.1 115.78, 977.82 2 M536.03 516.32 C699.79 328.92, 864.11 142.09, 982.81 2.36 M536.03 516.32 C629.17 412.04, 720.18 306.46, 982.81 2.36 M541.02 516.68 C720.5 311.46, 897.6 107.78, 988.45 1.97 M541.02 516.68 C670.72 370.37, 796.42 224.56, 988.45 1.97 M546.67 516.28 C672.85 373.17, 794.87 231.37, 993.44 2.33 M546.67 516.28 C680.4 367.74, 812.51 215.31, 993.44 2.33 M551.65 516.64 C670.17 385.8, 784.37 254.02, 999.08 1.93 M551.65 516.64 C712.99 333.9, 873.34 148.9, 999.08 1.93 M557.3 516.25 C728.28 322.92, 897.83 128.77, 1004.07 2.29 M557.3 516.25 C703.25 350.51, 846.33 185.52, 1004.07 2.29 M562.28 516.61 C708.17 351.99, 854.91 182.9, 1009.71 1.9 M562.28 516.61 C711.78 343.12, 859.55 173.34, 1009.71 1.9 M567.93 516.22 C732.25 321.63, 900.27 129.89, 1014.7 2.26 M567.93 516.22 C729.53 332.62, 891.77 146.03, 1014.7 2.26 M572.91 516.58 C695.28 376.6, 816.02 236.65, 1020.34 1.86 M572.91 516.58 C736.87 327.91, 903.52 134.77, 1020.34 1.86 M578.56 516.18 C740.09 326.43, 907.44 136.77, 1025.33 2.22 M578.56 516.18 C676.76 405.91, 771.37 296.76, 1025.33 2.22 M583.54 516.54 C724.73 355.44, 866.28 189.18, 1030.97 1.83 M583.54 516.54 C681.35 411.33, 774.82 303.21, 1030.97 1.83 M589.19 516.15 C765.37 309.85, 941.83 106.99, 1035.96 2.19 M589.19 516.15 C704.27 377.58, 823.01 241.81, 1035.96 2.19 M594.17 516.51 C759.53 323.03, 927.54 131.6, 1041.6 1.79 M594.17 516.51 C699.71 399.52, 805.48 278.42, 1041.6 1.79 M599.82 516.11 C729.5 367.19, 857.68 218.91, 1046.59 2.15 M599.82 516.11 C696.46 397.51, 797.62 281.67, 1046.59 2.15 M604.8 516.47 C734.39 366.29, 865.1 215.52, 1052.23 1.76 M604.8 516.47 C781.16 318.03, 956.87 116.34, 1052.23 1.76 M610.45 516.08 C709.14 402.85, 805.38 294.53, 1057.22 2.12 M610.45 516.08 C706.64 410.69, 799.21 303.57, 1057.22 2.12 M615.43 516.44 C709.45 401.98, 804.42 292.08, 1062.86 1.73 M615.43 516.44 C738.73 369.53, 864.63 224.18, 1062.86 1.73 M621.08 516.04 C773.08 334.06, 931.17 154.24, 1067.85 2.09 M621.08 516.04 C725.5 396.37, 828.39 277.59, 1067.85 2.09 M626.06 516.4 C733.09 396.09, 837.3 276.1, 1073.49 1.69 M626.06 516.4 C749.1 377.54, 870.74 237.95, 1073.49 1.69 M631.05 516.76 C805.36 313.8, 983.46 112.46, 1078.48 2.05 M631.05 516.76 C771.16 352.55, 915.72 186.27, 1078.48 2.05 M636.69 516.37 C786.37 350.06, 930.81 181.16, 1082.81 3.17 M636.69 516.37 C802.2 321.81, 972.41 127.74, 1082.81 3.17 M641.68 516.73 C759.36 385.41, 874.86 251.9, 1087.14 4.28 M641.68 516.73 C740.13 408.5, 837.23 296.12, 1087.14 4.28 M647.32 516.33 C741.95 406.76, 836.41 294.48, 1091.47 5.4 M647.32 516.33 C816.32 320.76, 984.81 125.78, 1091.47 5.4 M652.31 516.69 C821.1 322.28, 986.03 134.1, 1096.46 5.76 M652.31 516.69 C765.64 383.78, 882.62 249.18, 1096.46 5.76 M657.95 516.3 C798 361.86, 933.67 202.53, 1099.48 8.38 M657.95 516.3 C792.43 359.26, 929.7 200.61, 1099.48 8.38 M662.94 516.66 C833.4 324.13, 1001.95 129.87, 1102.5 11 M662.94 516.66 C798.75 359.28, 933.03 202.05, 1102.5 11 M668.58 516.26 C834.2 329.29, 997.34 138.73, 1105.52 13.63 M668.58 516.26 C830.88 335.91, 990.84 151.96, 1105.52 13.63 M673.57 516.62 C782.63 388.09, 895.37 260.62, 1106.57 18.52 M673.57 516.62 C767.66 412.67, 860.26 308.11, 1106.57 18.52 M679.21 516.23 C783.08 395.6, 889.97 275.74, 1107.62 23.4 M679.21 516.23 C842.94 320.36, 1011.59 128, 1107.62 23.4 M684.2 516.59 C844.81 339.11, 1003.84 157.49, 1108.67 28.29 M684.2 516.59 C827.23 350.25, 973.6 182.96, 1108.67 28.29 M689.84 516.2 C829.58 359.84, 969.05 199.91, 1109.72 33.18 M689.84 516.2 C855.62 324.72, 1023.92 132.34, 1109.72 33.18 M694.83 516.56 C788.08 409.48, 882.92 299.75, 1109.46 39.58 M694.83 516.56 C807.97 384.52, 921.7 253.72, 1109.46 39.58 M700.47 516.16 C815.73 382.11, 934.56 246.48, 1109.85 45.22 M700.47 516.16 C806.33 395.78, 910.1 275.68, 1109.85 45.22 M705.46 516.52 C845.07 356.21, 985.92 193.37, 1109.59 51.62 M705.46 516.52 C825.47 382.61, 943.04 248.59, 1109.59 51.62 M711.1 516.13 C854.7 349.39, 1000.37 182.71, 1109.33 58.02 M711.1 516.13 C863.85 338.87, 1016.89 162.83, 1109.33 58.02 M716.09 516.49 C858.42 355.16, 996.84 191.52, 1109.73 63.66 M716.09 516.49 C825.28 386.64, 935.74 259.67, 1109.73 63.66 M721.73 516.09 C823.21 397.02, 926.48 280.58, 1109.46 70.06 M721.73 516.09 C821.08 399.42, 923.89 281.29, 1109.46 70.06 M726.72 516.45 C846.22 380.51, 962.18 245.18, 1109.86 75.7 M726.72 516.45 C820.58 408.57, 914.84 302.34, 1109.86 75.7 M732.36 516.06 C827.64 407.17, 921.17 296.73, 1109.6 82.1 M732.36 516.06 C858.59 370.38, 987.81 222.26, 1109.6 82.1 M737.35 516.42 C877.23 357.01, 1016.37 199.58, 1109.34 88.5 M737.35 516.42 C877.17 348.4, 1020.84 184.36, 1109.34 88.5 M742.99 516.02 C847.82 401.72, 948.16 284.79, 1109.73 94.14 M742.99 516.02 C852.31 387.86, 965.87 257.08, 1109.73 94.14 M747.98 516.38 C862.99 379.44, 978.13 243.89, 1109.47 100.54 M747.98 516.38 C828.78 426.23, 908.93 335.28, 1109.47 100.54 M752.97 516.74 C840.57 420.41, 925.56 324.17, 1109.86 106.18 M752.97 516.74 C831.44 422.89, 910.83 331.8, 1109.86 106.18 M758.61 516.35 C855.54 404.8, 951.26 295.7, 1109.6 112.58 M758.61 516.35 C856.14 403.34, 952.18 294, 1109.6 112.58 M763.6 516.71 C873.22 396.32, 976.88 271.93, 1109.34 118.98 M763.6 516.71 C898.65 362.06, 1035.59 203.62, 1109.34 118.98 M769.24 516.31 C889.53 383.52, 1007.12 248.78, 1109.74 124.62 M769.24 516.31 C893.15 371.87, 1018.16 227.58, 1109.74 124.62 M774.23 516.67 C847.49 429.29, 923.82 339.68, 1109.47 131.02 M774.23 516.67 C872.96 400.03, 973.54 284.35, 1109.47 131.02 M779.87 516.28 C901.74 379.23, 1023.32 240.02, 1109.87 136.66 M779.87 516.28 C895.05 386.9, 1007.58 256.07, 1109.87 136.66 M784.86 516.64 C848.64 437.67, 916.81 359.18, 1109.61 143.06 M784.86 516.64 C872.52 419.09, 957.83 319.66, 1109.61 143.06 M790.5 516.25 C916.2 371.15, 1039.8 225.6, 1109.35 149.46 M790.5 516.25 C898.58 390.44, 1009.52 263.73, 1109.35 149.46 M795.49 516.61 C865.21 439.9, 933.36 360.31, 1109.74 155.1 M795.49 516.61 C914.83 381.08, 1033.23 245.74, 1109.74 155.1 M801.13 516.21 C919.41 375.9, 1041 234.47, 1109.48 161.5 M801.13 516.21 C902.72 397.22, 1004.47 278.18, 1109.48 161.5 M806.12 516.57 C896.99 408.53, 989.51 303.42, 1109.87 167.14 M806.12 516.57 C919.03 385, 1034.05 252.6, 1109.87 167.14 M811.76 516.18 C918.49 393.44, 1026.87 270.22, 1109.61 173.54 M811.76 516.18 C919.88 391.58, 1027 268.06, 1109.61 173.54 M816.75 516.54 C899.71 420.63, 979.46 327.49, 1109.35 179.94 M816.75 516.54 C927.58 387.46, 1037.06 261.51, 1109.35 179.94 M822.39 516.14 C878.57 447.53, 934.31 379.62, 1109.75 185.58 M822.39 516.14 C908.63 418.84, 993.54 322.02, 1109.75 185.58 M827.38 516.5 C882.74 449.71, 941.71 383.28, 1109.48 191.98 M827.38 516.5 C920.78 413.83, 1011.89 308.88, 1109.48 191.98 M833.02 516.11 C896.53 442.03, 962.7 364.38, 1109.88 197.62 M833.02 516.11 C916.2 418.41, 1004.02 317.48, 1109.88 197.62 M838.01 516.47 C931.51 410.64, 1023.29 304.72, 1109.62 204.02 M838.01 516.47 C930.85 409.64, 1024.38 302.24, 1109.62 204.02 M843.65 516.07 C920.02 426.03, 998.4 337.43, 1109.36 210.42 M843.65 516.07 C895.99 450.68, 951.04 387.3, 1109.36 210.42 M848.64 516.43 C945.87 398.68, 1047.95 282.58, 1109.75 216.06 M848.64 516.43 C905.96 452.81, 960.62 391.53, 1109.75 216.06 M854.28 516.04 C914.7 448.37, 977.15 377.23, 1109.49 222.46 M854.28 516.04 C923.22 442.06, 988.91 365.42, 1109.49 222.46 M859.27 516.4 C917.59 450.94, 975.8 383.98, 1109.88 228.1 M859.27 516.4 C922.39 443.77, 986.8 370.09, 1109.88 228.1 M864.26 516.76 C927.69 440.27, 990 371.76, 1109.62 234.5 M864.26 516.76 C956.79 410.76, 1050.07 304.07, 1109.62 234.5 M869.9 516.36 C918.39 462.56, 967.1 405.13, 1109.36 240.9 M869.9 516.36 C938.09 440.15, 1004.79 362.95, 1109.36 240.9 M874.89 516.72 C951.33 427.31, 1026.18 344.15, 1109.75 246.54 M874.89 516.72 C965.13 416.62, 1049.54 317.09, 1109.75 246.54 M880.53 516.33 C938.31 453.78, 990.78 394.69, 1109.49 252.94 M880.53 516.33 C928.73 459.96, 977.8 403.03, 1109.49 252.94 M885.52 516.69 C964.81 426.1, 1042.95 334.23, 1109.89 258.58 M885.52 516.69 C935.4 453.67, 989.23 390.86, 1109.89 258.58 M891.16 516.3 C950.94 448.12, 1016.48 374.37, 1109.63 264.98 M891.16 516.3 C951.96 444.18, 1011.97 373.91, 1109.63 264.98 M896.15 516.66 C948.36 451.71, 1004.36 384.18, 1109.37 271.37 M896.15 516.66 C966.77 438.64, 1035.92 359.44, 1109.37 271.37 M901.79 516.26 C965.2 443.5, 1036.68 363.89, 1109.76 277.02 M901.79 516.26 C956.22 455.74, 1007.45 398.42, 1109.76 277.02 M906.78 516.62 C967.93 441.69, 1032.5 371.94, 1109.5 283.42 M906.78 516.62 C977.17 435.25, 1047.38 356.74, 1109.5 283.42 M912.42 516.23 C980.18 438.18, 1047.34 362.35, 1109.89 289.06 M912.42 516.23 C974.59 444.85, 1039.07 370.39, 1109.89 289.06 M917.41 516.59 C982.2 437.72, 1044.68 366.43, 1109.63 295.46 M917.41 516.59 C986.15 440.08, 1050.97 365.18, 1109.63 295.46 M923.05 516.19 C986.17 445.69, 1044.4 376.13, 1109.37 301.85 M923.05 516.19 C980.43 453.6, 1035.62 389.68, 1109.37 301.85 M928.04 516.55 C991.57 440.46, 1055.17 370.41, 1109.76 307.5 M928.04 516.55 C995 435.21, 1065.55 357.65, 1109.76 307.5 M933.68 516.16 C992.19 449.15, 1049.43 378.34, 1109.5 313.89 M933.68 516.16 C1000.98 433.64, 1071.21 352.34, 1109.5 313.89 M938.67 516.52 C989.03 453.28, 1037.25 392.79, 1109.24 320.29 M938.67 516.52 C1006.68 441.61, 1073.32 366.05, 1109.24 320.29 M944.31 516.12 C1009.11 446.09, 1069.86 374.25, 1109.64 325.94 M944.31 516.12 C980.53 471.65, 1017.85 425.75, 1109.64 325.94 M949.3 516.48 C1006.42 452.32, 1057.84 388.46, 1109.37 332.33 M949.3 516.48 C1001.79 450.51, 1056.98 387.26, 1109.37 332.33 M954.94 516.09 C1006.25 457.03, 1061.66 399.1, 1109.77 337.98 M954.94 516.09 C993.47 472, 1031.72 428.23, 1109.77 337.98 M959.93 516.45 C1016.24 453.37, 1071.85 384.66, 1109.51 344.37 M959.93 516.45 C1006.94 463.01, 1050.39 407.73, 1109.51 344.37 M965.57 516.05 C1001.09 473.76, 1036.06 433.83, 1109.25 350.77 M965.57 516.05 C1006.64 474.5, 1043.84 431.59, 1109.25 350.77 M970.56 516.41 C1004.58 476.71, 1037.07 437.95, 1109.64 356.42 M970.56 516.41 C1017.4 458.54, 1068.82 400.14, 1109.64 356.42 M975.54 516.77 C1007.14 476.71, 1039.82 433.93, 1109.38 362.81 M975.54 516.77 C1023.56 464.55, 1069.15 409.09, 1109.38 362.81 M981.19 516.38 C1010.97 480.5, 1044.1 448.26, 1109.77 368.46 M981.19 516.38 C1023.02 474.39, 1061.57 430.95, 1109.77 368.46 M986.17 516.74 C1018.3 486.17, 1043.4 450.26, 1109.51 374.85 M986.17 516.74 C1023.24 473.92, 1061.66 429.34, 1109.51 374.85 M991.82 516.34 C1029.84 473.78, 1070.63 423.36, 1109.25 381.25 M991.82 516.34 C1031.55 476.39, 1067.43 435.1, 1109.25 381.25 M996.8 516.7 C1034.63 476.83, 1072.53 436.44, 1109.65 386.89 M996.8 516.7 C1025.79 482.31, 1054.33 451.52, 1109.65 386.89 M1002.45 516.31 C1036.38 485.5, 1061.35 447.69, 1109.38 393.29 M1002.45 516.31 C1031.83 480.14, 1061.13 445.52, 1109.38 393.29 M1007.43 516.67 C1030.34 486.65, 1057.85 459.78, 1109.78 398.94 M1007.43 516.67 C1031.31 489.88, 1053.05 466.14, 1109.78 398.94 M1013.08 516.28 C1036.09 486.1, 1060.29 456.5, 1109.52 405.33 M1013.08 516.28 C1046.36 476.76, 1079.57 438.51, 1109.52 405.33 M1018.06 516.64 C1053.34 478.94, 1082.72 439.6, 1109.26 411.73 M1018.06 516.64 C1047.98 484.1, 1076.1 450.54, 1109.26 411.73 M1023.71 516.24 C1055.64 479.18, 1087.5 439.82, 1109.65 417.37 M1023.71 516.24 C1050.38 485.64, 1079.89 455.53, 1109.65 417.37 M1028.69 516.6 C1052.83 489.99, 1078.6 465.85, 1109.39 423.77 M1028.69 516.6 C1062.01 482.22, 1093.46 445.68, 1109.39 423.77 M1034.34 516.21 C1053.46 491.79, 1074.79 477.43, 1109.78 429.42 M1034.34 516.21 C1064.07 480.58, 1091.63 447.26, 1109.78 429.42 M1039.32 516.57 C1056.74 503.14, 1070.93 486.49, 1109.52 435.81 M1039.32 516.57 C1062.48 486.14, 1088.55 461.22, 1109.52 435.81 M1044.97 516.17 C1072.04 488.5, 1095.64 454.86, 1109.26 442.21 M1044.97 516.17 C1066.35 491.63, 1086.43 467.5, 1109.26 442.21 M1049.95 516.53 C1066.09 491.57, 1085.15 478.08, 1109.66 447.85 M1049.95 516.53 C1067.6 496.57, 1084 477.52, 1109.66 447.85 M1055.6 516.14 C1070.11 497.89, 1094.88 472.6, 1109.39 454.25 M1055.6 516.14 C1071.81 498.5, 1082.72 483.48, 1109.39 454.25 M1060.58 516.5 C1074.73 505.92, 1079.5 487.79, 1109.79 459.89 M1060.58 516.5 C1074.98 500.37, 1090.55 480.42, 1109.79 459.89 M1066.23 516.1 C1083.33 496.23, 1096.09 482.42, 1109.53 466.29 M1066.23 516.1 C1077.18 503.7, 1087.38 492.51, 1109.53 466.29 M1071.21 516.46 C1078.7 502.96, 1088.71 493.16, 1109.27 472.69 M1071.21 516.46 C1084.4 501.87, 1095.01 485.66, 1109.27 472.69 M1076.2 516.82 C1082.9 503.68, 1095.04 493.94, 1109.66 478.33 M1076.2 516.82 C1089.15 503.11, 1100.91 489.82, 1109.66 478.33 M1083.16 514.92 C1095.99 506.83, 1106.29 492.23, 1109.4 484.73 M1083.16 514.92 C1089.33 506.98, 1101.39 498.01, 1109.4 484.73 M1089.46 513.77 C1093.13 510.43, 1104.66 497.87, 1107.17 493.39 M1089.46 513.77 C1095.19 509.54, 1098.5 503.32, 1107.17 493.39" stroke="#ffc9c9" stroke-width="0.5" fill="none"></path><path d="M32 0 M32 0 C336.98 -4.83, 644.8 -4.73, 1076 0 M32 0 C366.06 -4.64, 699.57 -4.99, 1076 0 M1076 0 C1097.05 2.48, 1108.75 11.91, 1108 32 M1076 0 C1096.03 1.66, 1109.41 9.86, 1108 32 M1108 32 C1110.51 205.9, 1109.82 381.37, 1108 484 M1108 32 C1108.08 145.45, 1107.74 259, 1108 484 M1108 484 C1107.61 502.23, 1095.22 518.4, 1076 516 M1108 484 C1103.63 505.09, 1095.8 511.78, 1076 516 M1076 516 C795.75 521.1, 516.98 518.6, 32 516 M1076 516 C706.35 518.93, 335.18 518.78, 32 516 M32 516 C11.17 512.12, -1.69 503.98, 0 484 M32 516 C12.87 515.23, 2.37 501.81, 0 484 M0 484 C1.38 351.26, -1.51 219.99, 0 32 M0 484 C2.77 334.35, 2.13 184.74, 0 32 M0 32 C-1.06 10.07, 9.66 0.33, 32 0 M0 32 C-0.78 12.61, 13.96 2.4, 32 0" stroke="#e03131" stroke-width="1" fill="none"></path></g><g transform="translate(2280.7763069470698 444.10575230916334) rotate(0 484.6820373535156 175)"><text x="484.6820373535156" y="0" font-family="Virgil, Segoe UI Emoji" font-size="28px" fill="#1e1e1e" text-anchor="middle" style="white-space: pre;" direction="ltr" dominant-baseline="text-before-edge">Pointers yaar </text><text x="484.6820373535156" y="35" font-family="Virgil, Segoe UI Emoji" font-size="28px" fill="#1e1e1e" text-anchor="middle" style="white-space: pre;" direction="ltr" dominant-baseline="text-before-edge">*-&gt; to make a pointer variable</text><text x="484.6820373535156" y="70" font-family="Virgil, Segoe UI Emoji" font-size="28px" fill="#1e1e1e" text-anchor="middle" style="white-space: pre;" direction="ltr" dominant-baseline="text-before-edge">**-&gt; make a pointer variable to point at a pointer variable's address</text><text x="484.6820373535156" y="105" font-family="Virgil, Segoe UI Emoji" font-size="28px" fill="#1e1e1e" text-anchor="middle" style="white-space: pre;" direction="ltr" dominant-baseline="text-before-edge">&amp;-&gt;Get the location of a variable</text><text x="484.6820373535156" y="140" font-family="Virgil, Segoe UI Emoji" font-size="28px" fill="#1e1e1e" text-anchor="middle" style="white-space: pre;" direction="ltr" dominant-baseline="text-before-edge"></text><text x="484.6820373535156" y="175" font-family="Virgil, Segoe UI Emoji" font-size="28px" fill="#1e1e1e" text-anchor="middle" style="white-space: pre;" direction="ltr" dominant-baseline="text-before-edge"></text><text x="484.6820373535156" y="210" font-family="Virgil, Segoe UI Emoji" font-size="28px" fill="#1e1e1e" text-anchor="middle" style="white-space: pre;" direction="ltr" dominant-baseline="text-before-edge"></text><text x="484.6820373535156" y="245" font-family="Virgil, Segoe UI Emoji" font-size="28px" fill="#1e1e1e" text-anchor="middle" style="white-space: pre;" direction="ltr" dominant-baseline="text-before-edge">The *-operator (dereference operator) can also be read</text><text x="484.6820373535156" y="280" font-family="Virgil, Segoe UI Emoji" font-size="28px" fill="#1e1e1e" text-anchor="middle" style="white-space: pre;" direction="ltr" dominant-baseline="text-before-edge">as "value pointed to by". The example above could in that way be</text><text x="484.6820373535156" y="315" font-family="Virgil, Segoe UI Emoji" font-size="28px" fill="#1e1e1e" text-anchor="middle" style="white-space: pre;" direction="ltr" dominant-baseline="text-before-edge">read as "Value pointed to by pointer is now newValue".</text></g><g stroke-linecap="round" transform="translate(1052.882482687629 168.74912897745781) rotate(0 324.776102701823 56.67661031087235)"><path d="M28.34 0 M28.34 0 C260.32 2.44, 491.31 0.96, 621.21 0 M28.34 0 C259.47 4.19, 489.65 4.87, 621.21 0 M621.21 0 C642.91 1.96, 651.93 10.51, 649.55 28.34 M621.21 0 C639.89 -1.12, 647.67 13.68, 649.55 28.34 M649.55 28.34 C645.31 51.78, 648.95 74.66, 649.55 85.01 M649.55 28.34 C649.92 48.56, 649.32 70.52, 649.55 85.01 M649.55 85.01 C645.59 100.82, 642.67 110.78, 621.21 113.35 M649.55 85.01 C646.76 107.32, 637.24 116.92, 621.21 113.35 M621.21 113.35 C470.37 111.09, 321.17 111.24, 28.34 113.35 M621.21 113.35 C499.94 114.84, 380.13 113.76, 28.34 113.35 M28.34 113.35 C6.51 117.24, 3.71 100.74, 0 85.01 M28.34 113.35 C10.22 108.82, 2.32 106.75, 0 85.01 M0 85.01 C1.99 73.61, 0.78 53.12, 0 28.34 M0 85.01 C-1.65 74.86, 0.33 63.47, 0 28.34 M0 28.34 C2.6 6.79, 8.21 0.94, 28.34 0 M0 28.34 C-1.78 10.6, 11.4 3.94, 28.34 0" stroke="#e03131" stroke-width="1" fill="none"></path></g><g transform="translate(1142.8059357007319 201.4328002929687) rotate(0 242.2197265625 25)"><text x="242.2197265625" y="0" font-family="Virgil, Segoe UI Emoji" font-size="20px" fill="#e03131" text-anchor="middle" style="white-space: pre;" direction="ltr" dominant-baseline="text-before-edge">Delete element takes same params as add vale,</text><text x="242.2197265625" y="25" font-family="Virgil, Segoe UI Emoji" font-size="20px" fill="#e03131" text-anchor="middle" style="white-space: pre;" direction="ltr" dominant-baseline="text-before-edge"></text></g><g transform="translate(1025.5853749910966 10) rotate(0 288.58966064453125 37.5)"><text x="288.58966064453125" y="0" font-family="Virgil, Segoe UI Emoji" font-size="20px" fill="#e03131" text-anchor="middle" style="white-space: pre;" direction="ltr" dominant-baseline="text-before-edge">Inside the func, make a temp node that stored head</text><text x="288.58966064453125" y="25" font-family="Virgil, Segoe UI Emoji" font-size="20px" fill="#e03131" text-anchor="middle" style="white-space: pre;" direction="ltr" dominant-baseline="text-before-edge">and a prevnode which points to null. this stores the node </text><text x="288.58966064453125" y="50" font-family="Virgil, Segoe UI Emoji" font-size="20px" fill="#e03131" text-anchor="middle" style="white-space: pre;" direction="ltr" dominant-baseline="text-before-edge">previous to the</text></g><g stroke-linecap="round"><g transform="translate(1036.3193023999504 224.14922078450513) rotate(0 -103.7290986568978 45.37602759232121)"><path d="M1.99 -0.54 C-22.26 1.44, -112.63 -2.28, -147.87 13.01 C-183.11 28.31, -199.9 77.88, -209.45 91.21 M-0.38 -3.3 C-23.58 -1.14, -109.05 -0.82, -142.93 15.41 C-176.8 31.64, -192.13 82.01, -203.62 94.05" stroke="#e03131" stroke-width="1" fill="none"></path></g><g transform="translate(1036.3193023999504 224.14922078450513) rotate(0 -103.7290986568978 45.37602759232121)"><path d="M-198.42 60.82 C-201.94 68.41, -200.68 80.86, -201.73 96.66 M-196.62 66.4 C-199.22 72.39, -202.51 83.21, -203.76 92.67" stroke="#e03131" stroke-width="1" fill="none"></path></g><g transform="translate(1036.3193023999504 224.14922078450513) rotate(0 -103.7290986568978 45.37602759232121)"><path d="M-180.92 71.54 C-188.28 77.07, -190.77 87.22, -201.73 96.66 M-179.12 77.12 C-187.33 79.76, -196.23 87.15, -203.76 92.67" stroke="#e03131" stroke-width="1" fill="none"></path></g></g><mask></mask><g transform="translate(1703.4555939038569 13.350652058919252) rotate(0 290.649658203125 37.5)"><text x="290.649658203125" y="0" font-family="Virgil, Segoe UI Emoji" font-size="20px" fill="#e03131" text-anchor="middle" style="white-space: pre;" direction="ltr" dominant-baseline="text-before-edge">First Check if head mai hi vo value hai kya, if yes then </text><text x="290.649658203125" y="25" font-family="Virgil, Segoe UI Emoji" font-size="20px" fill="#e03131" text-anchor="middle" style="white-space: pre;" direction="ltr" dominant-baseline="text-before-edge">make head=temp-&gt;next basically changing the head to next</text><text x="290.649658203125" y="50" font-family="Virgil, Segoe UI Emoji" font-size="20px" fill="#e03131" text-anchor="middle" style="white-space: pre;" direction="ltr" dominant-baseline="text-before-edge">node and deleting temp node which was the previous head.</text></g><g transform="translate(1880.720687071479 140.5248260498047) rotate(0 149.9498291015625 12.5)"><text x="149.9498291015625" y="0" font-family="Virgil, Segoe UI Emoji" font-size="20px" fill="#e03131" text-anchor="middle" style="white-space: pre;" direction="ltr" dominant-baseline="text-before-edge">If above case nahi hua, then </text></g></svg>